<?xml version="1.0" encoding="UTF-8"?>
<svg version="1.1" xmlns="http://www.w3.org/2000/svg" width="425" height="425">
<path d="M0 0 C140.25 0 280.5 0 425 0 C425 140.25 425 280.5 425 425 C284.75 425 144.5 425 0 425 C0 284.75 0 144.5 0 0 Z " fill="#FEFEFE" transform="translate(0,0)"/>
<path d="M0 0 C5.28 0 10.56 0 16 0 C23.93457764 15.39308062 30.93675194 31.19404692 38 47 C44.07388814 35.1151311 49.74386639 23.06260305 55.33837891 10.94677734 C55.63858444 10.29864578 55.93878998 9.65051422 56.24809265 8.98274231 C57.07656386 7.1938104 57.90249028 5.40370062 58.72827148 3.61352539 C60 1 60 1 61 0 C63.35313555 -0.07271741 65.70833668 -0.08370868 68.0625 -0.0625 C69.99802734 -0.04896484 69.99802734 -0.04896484 71.97265625 -0.03515625 C72.97167969 -0.02355469 73.97070312 -0.01195312 75 0 C73.04712469 6.40569536 70.56229435 12.3165556 67.5703125 18.30078125 C67.14362274 19.16664352 66.71693298 20.0325058 66.27731323 20.92460632 C65.36788628 22.76933706 64.45605503 24.6128842 63.54199219 26.45532227 C61.14265206 31.29327498 58.76259275 36.14068423 56.3828125 40.98828125 C55.91280823 41.9450174 55.44280396 42.90175354 54.95855713 43.88748169 C51.20386416 51.54645074 47.56148501 59.24933097 44 67 C39.66233304 76.43516572 35.24957256 85.82873748 30.75 95.1875 C30.18796875 96.35990234 29.6259375 97.53230469 29.046875 98.74023438 C28.53125 99.80951172 28.015625 100.87878906 27.484375 101.98046875 C27.02772461 102.92817139 26.57107422 103.87587402 26.10058594 104.85229492 C25 107 25 107 24 108 C21.64686445 108.07271741 19.29166332 108.08370868 16.9375 108.0625 C15.00197266 108.04896484 15.00197266 108.04896484 13.02734375 108.03515625 C12.02832031 108.02355469 11.02929688 108.01195312 10 108 C11.52496588 104.03388322 13.29291241 100.23406017 15.15234375 96.4140625 C15.45314346 95.79405365 15.75394318 95.1740448 16.06385803 94.5352478 C17.02011389 92.56437095 17.97854419 90.59456442 18.9375 88.625 C20.1984743 86.03475262 21.45725793 83.44345639 22.71484375 80.8515625 C23.27292725 79.70510254 23.83101074 78.55864258 24.40600586 77.37744141 C28.61035174 69.07569708 28.61035174 69.07569708 28 60 C26.25818924 55.84817055 24.26577476 51.83709558 22.25 47.8125 C21.06980067 45.41102213 19.89140602 43.00872396 18.71484375 40.60546875 C18.4113652 39.98796753 18.10788666 39.37046631 17.79521179 38.73425293 C14.36678319 31.74476815 11.08412686 24.68888842 7.8125 17.625 C7.26045898 16.43753174 6.70841797 15.25006348 6.13964844 14.02661133 C3.98622399 9.37784723 1.90369093 4.75922732 0 0 Z " fill="#050505" transform="translate(234,186)"/>
<path d="M0 0 C4.95 0 9.9 0 15 0 C15 31.02 15 62.04 15 94 C30.18 94 45.36 94 61 94 C61 98.62 61 103.24 61 108 C40.87 108 20.74 108 0 108 C0 72.36 0 36.72 0 0 Z " fill="#080808" transform="translate(115,155)"/>
<path d="M0 0 C4.62 0 9.24 0 14 0 C14 40.59 14 81.18 14 123 C9.38 123 4.76 123 0 123 C0 82.41 0 41.82 0 0 Z " fill="#050505" transform="translate(213,140)"/>
<path d="M0 0 C4.62 0 9.24 0 14 0 C14 25.41 14 50.82 14 77 C9.38 77 4.76 77 0 77 C0 51.59 0 26.18 0 0 Z " fill="#030303" transform="translate(184,186)"/>
<path d="M0 0 C2.25 1.6875 2.25 1.6875 4.25 4.6875 C4.70971784 9.65245273 4.40065843 12.74917696 1.25 16.6875 C-1.96522137 19.01576375 -4.85830425 19.08461181 -8.75 18.6875 C-11.55915461 17.41061154 -13.25106764 16.37650183 -15.0625 13.875 C-16.33476509 9.82688379 -16.25914951 6.80762891 -14.5 2.9375 C-10.66209689 -1.99694686 -5.62274075 -2.68358081 0 0 Z " fill="#050505" transform="translate(196.75,155.3125)"/>
</svg>
